OpenSim_Sub08_EMGStiffKnee_GRF.mot
version=1
nRows=64
nColumns=19
inDegrees=no
endheader
time	lFx	lFy	lFz	lCOPx	lCOPy	lCOPz	rFx	rFy	rFz	rCOPx	rCOPy	rCOPz	lMx	lMy	lMz	rMx	rMy	rMz
31.50000000	21.62232591	528.13193500	31.03520189	0.66031261	0	-0.60873952	0.30868115	-0.18036454	-0.00015421	0.00000000	0	-0.00000000	0	3.98191245	0	0	-0.00000000	-0.00000000
31.51000000	23.49476120	528.03300061	31.37161048	0.65319893	0	-0.60839440	0.31187854	-0.28645977	-0.03808466	0.00000000	0	-0.00000000	0	3.86733932	0	0	-0.00000000	0.00000000
31.52000000	25.45472240	527.64422878	31.65352513	0.64589464	0	-0.60799961	0.27741957	-0.30794088	-0.03729702	-0.00000000	0	0.00000000	0	3.77971317	0	0	-0.00000001	0.00000000
31.53000000	27.67146200	526.94643709	31.82811806	0.63857069	0	-0.60760218	0.23797225	-0.20964659	-0.02258565	-0.00000003	0	0.00000001	0	3.69533224	0	0	-0.00000000	0.00000000
31.54000000	30.12304267	526.10471674	31.88542109	0.63157789	0	-0.60729427	0.19607339	-0.10759935	-0.00895532	-0.00000007	0	0.00000003	0	3.62148713	0	0	0.00000002	-0.00000000
31.55000000	32.67473307	525.09126636	31.87928300	0.62483685	0	-0.60707016	0.15789861	-0.05079589	0.04193292	-0.00000011	0	0.00000005	0	3.58769767	0	0	0.00000006	-0.00000000
31.56000000	35.35515232	523.86720310	31.86370793	0.61813128	0	-0.60690221	0.12725167	-0.04405870	0.06697937	-0.00000007	0	0.00000004	0	3.58663262	0	0	0.00000013	0.00000000
31.57000000	38.23276973	522.45567047	31.85164746	0.61131665	0	-0.60680739	0.10359038	-0.04312188	0.08063651	0.00000019	0	-0.00000008	0	3.58997096	0	0	0.00000016	0.00000000
31.58000000	41.27867398	520.78059910	31.89506139	0.60435581	0	-0.60675445	0.08664830	0.03313366	0.09887024	0.00000084	0	-0.00000039	0	3.57146677	0	0	-0.00000002	0.00000000
31.59000000	44.33072790	518.79335195	31.97199234	0.59751194	0	-0.60669493	0.07660622	0.13357655	0.05432715	0.00000188	0	-0.00000088	0	3.54215646	0	0	-0.00000065	-0.00000000
31.60000000	47.40975688	516.30291776	31.91794655	0.59073321	0	-0.60658592	0.08741843	0.15757544	0.02919077	0.00000255	0	-0.00000121	0	3.55542247	0	0	-0.00000191	-0.00000000
31.61000000	50.61969036	513.20717992	31.61960878	0.58391009	0	-0.60642895	0.11118372	0.16625399	0.08105390	0.00000067	0	-0.00000038	0	3.63005480	0	0	-0.00000338	-0.00000000
31.62000000	53.99204313	509.43123015	31.09432745	0.57681255	0	-0.60620756	0.13292044	0.18047597	0.11789297	-0.00000762	0	0.00000343	0	3.74883719	0	0	-0.00000310	0.00000000
31.63000000	57.42270094	505.12398740	30.45130934	0.56963262	0	-0.60597038	0.16299701	0.13447915	0.13978201	-0.00002584	0	0.00001194	0	3.85703628	0	0	0.00000334	-0.00000000
31.64000000	60.83434308	500.23943393	29.76951253	0.56251874	0	-0.60579853	0.20438751	0.06167809	0.15210291	-0.00005013	0	0.00002352	0	3.96151817	0	0	0.00002199	0.00000000
31.65000000	64.23567827	494.49145299	29.20034261	0.55546490	0	-0.60574530	0.23208688	-0.00071777	0.10601288	-0.00005538	0	0.00002666	0	4.01262978	0	0	0.00005459	0.00000000
31.66000000	67.65743773	487.47257309	28.79713831	0.54821719	0	-0.60578874	0.22271479	-0.05695082	0.07517004	0.00002069	0	-0.00000762	0	4.04163494	0	0	0.00008361	0.00000000
31.67000000	71.04097768	479.01486025	28.52009881	0.54073211	0	-0.60591408	0.21522633	-0.13434486	0.06292787	0.00027329	0	-0.00012440	0	4.07805512	0	0	0.00004876	0.00000000
31.68000000	74.21706407	469.17103389	28.29412830	0.53319249	0	-0.60612353	0.25093920	-0.16023538	0.03430287	0.00075751	0	-0.00035162	0	4.10571177	0	0	-0.00016789	0.00000000
31.69000000	77.16297666	457.67544409	28.03873696	0.52548051	0	-0.60628201	0.28207790	-0.14882024	0.06172993	0.00128084	0	-0.00060386	0	4.06955034	0	0	-0.00069845	-0.00000000
31.70000000	79.82508045	443.96680783	27.59278247	0.51776234	0	-0.60633748	0.30149025	-0.13969865	0.10729859	0.00104552	0	-0.00051383	0	3.94961700	0	0	-0.00149986	-0.00000000
31.71000000	81.95586084	427.24008275	26.56888507	0.51030396	0	-0.60638927	0.33756388	-0.21929718	0.07176833	-0.00165867	0	0.00071805	0	3.85016556	0	0	-0.00193941	-0.00000000
31.72000000	83.01709014	406.57414032	24.58042250	0.50354000	0	-0.60652977	0.32378059	-0.58603258	0.01733866	-0.00903813	0	0.00414478	0	3.85736704	0	0	-0.00024512	-0.00000000
31.73000000	82.48081046	380.75962343	21.38446799	0.49722059	0	-0.60677312	0.14114119	-1.33015582	-0.07742535	-0.02135693	0	0.00995556	0	3.99796964	0	0	0.00660423	-0.00000000
31.74000000	79.99262408	348.66844156	17.06195924	0.49060947	0	-0.60705263	-0.33850219	-2.11946532	-0.21900412	-0.03105641	0	0.01473618	0	4.18837522	0	0	0.02113090	0.00000000
31.75000000	75.20479452	309.67164503	12.04725822	0.48360240	0	-0.60759200	-1.09453818	-1.54941449	-0.21106336	-0.01401434	0	0.00732563	0	4.25850859	0	0	0.03959407	-0.00000000
31.76000000	67.78362399	264.56287993	7.10252002	0.47752577	0	-0.60942075	-1.64605259	3.12770100	0.19798748	0.07489427	0	-0.03346973	0	3.99672452	0	0	0.04098699	-0.00000000
31.77000000	57.77534545	215.98336708	3.09554122	0.47431027	0	-0.61404545	-0.76777065	15.81291543	1.33146597	0.28223200	0	-0.13015724	0	3.27347705	0	0	-0.02476243	-0.00000000
31.78000000	45.94817520	168.01104158	0.75471728	0.47472685	0	-0.62193851	1.71373070	40.20859716	3.81898370	0.58003342	0	-0.27144906	0	2.08299726	0	0	-0.23174038	0
31.79000000	33.74676118	124.86197487	0.06291994	0.47596369	0	-0.62995294	2.75027257	76.69259161	8.21616799	0.81599353	0	-0.38405867	0	0.61122306	0	0	-0.63121287	0.00000000
31.80000000	23.00983137	89.06085590	0.22751485	0.47157097	0	-0.62732066	-0.87352362	122.53912875	12.90637944	0.92845572	0	-0.43762233	0	-0.74484319	0	0	-1.06615730	0
31.81000000	14.77664053	61.15886203	0.52439328	0.45016438	0	-0.59243616	-9.48675323	175.05700972	16.21916492	0.95649475	0	-0.45109175	0	-1.65719349	0	0	-1.38142242	0
31.82000000	9.08893064	40.28209556	0.61764243	0.39554027	0	-0.49845657	-21.02270345	231.26438282	17.50206878	0.94957553	0	-0.44750317	0	-1.93590076	0	0	-1.48620106	0
31.83000000	5.44711330	25.04952482	0.39539567	0.29932750	0	-0.34411475	-32.48152427	285.43129352	15.60219894	0.93658652	0	-0.44054556	0	-1.49887224	0	0	-1.34748984	0
31.84000000	3.32269333	14.16419065	-0.05735587	0.17848645	0	-0.18223206	-41.52122703	330.09043521	10.12571364	0.92713112	0	-0.43517791	0	-0.80099437	0	0	-1.05658601	0
31.85000000	2.41126036	6.60675399	-0.79408302	0.07077206	0	-0.06113702	-47.19200056	360.40496561	1.70468831	0.92109050	0	-0.43181200	0	-0.25459786	0	0	-0.75043593	0
31.86000000	2.39712862	1.86538614	-1.72002040	0.01002145	0	-0.00126102	-49.78736593	377.64864041	-8.59725649	0.91604334	0	-0.42969659	0	0.00585757	0	0	-0.50691237	0
31.87000000	2.69879066	-0.28605807	-2.46729143	-0.01057993	0	0.01510589	-50.73303529	388.63809063	-19.78552855	0.91068179	0	-0.42802435	0	0.07186812	0	0	-0.27419673	0
31.88000000	2.90998642	-0.73712762	-2.68362990	-0.01117756	0	0.01251829	-51.61120233	401.68591839	-30.88276275	0.90514256	0	-0.42620335	0	0.05643034	0	0	-0.04976266	-0.00000000
31.89000000	3.00262861	-0.43998211	-2.74807579	-0.00622665	0	0.00611460	-53.45006167	421.95723640	-40.62926086	0.90006912	0	-0.42419028	0	0.02656849	0	0	0.09269265	0
31.90000000	3.02766137	-0.04815774	-2.69674345	-0.00207520	0	0.00163123	-56.21733954	449.04715428	-47.21497305	0.89566052	0	-0.42241346	0	0.00655058	0	0	0.08914648	-0.00000000
31.91000000	3.01968616	0.18717132	-2.65294857	-0.00003193	0	-0.00029666	-58.91914819	479.57715816	-49.08077349	0.89185669	0	-0.42112103	0	-0.00172241	0	0	-0.11520698	-0.00000000
31.92000000	3.00778577	0.28808115	-2.66502559	0.00052151	0	-0.00066950	-60.87615744	509.74567879	-47.35024606	0.88837669	0	-0.42031840	0	-0.00311697	0	0	-0.40951237	0.00000000
31.93000000	3.00403104	0.27956469	-2.67078028	0.00042912	0	-0.00046184	-61.31115360	535.53172702	-44.05261300	0.88470849	0	-0.41986477	0	-0.00206019	0	0	-0.67926035	0
31.94000000	3.00187880	0.20393285	-2.70328062	0.00020863	0	-0.00019600	-60.09181728	553.70434172	-40.96490332	0.88053658	0	-0.41955840	0	-0.00083991	0	0	-0.90480807	0.00000000
31.95000000	3.00411373	0.14480643	-2.72637010	0.00005513	0	-0.00003631	-57.72549754	563.09301981	-39.17957201	0.87563241	0	-0.41924604	0	-0.00013423	0	0	-1.12394595	0
31.96000000	2.99318266	0.11689817	-2.75759383	-0.00001055	0	0.00002240	-54.89276480	564.80353604	-39.36264240	0.87035632	0	-0.41886236	0	0.00011322	0	0	-1.32993487	0
31.97000000	2.94997897	0.07435026	-2.77886714	-0.00002305	0	0.00002764	-52.19868197	561.30863418	-41.26938208	0.86525618	0	-0.41835414	0	0.00012673	0	0	-1.54199836	-0.00000000
31.98000000	2.88280439	-0.02771774	-2.80914379	-0.00001581	0	0.00001639	-49.88182480	555.19072220	-43.79905327	0.86061399	0	-0.41772784	0	0.00007238	0	0	-1.80380230	0
31.99000000	2.82464683	-0.11420906	-2.87762461	-0.00000668	0	0.00000593	-47.66844045	548.28753032	-45.79855635	0.85595468	0	-0.41711833	0	0.00002496	0	0	-2.04168629	0
32	2.78031895	-0.05670765	-2.92313680	-0.00000122	0	0.00000046	-45.19195616	541.66750173	-46.60788145	0.85112347	0	-0.41663749	0	0.00000105	0	0	-2.18282611	0
32.01000000	2.72612788	0.10559041	-2.94754729	0.00000078	0	-0.00000119	-42.29991318	535.39684557	-46.21275632	0.84612589	0	-0.41630381	0	-0.00000574	0	0	-2.25482118	0
32.02000000	2.65103106	0.22650736	-2.97091444	0.00000095	0	-0.00000108	-39.07029930	528.94968401	-45.29755002	0.84092051	0	-0.41606682	0	-0.00000491	0	0	-2.23289344	0
32.03000000	2.56993917	0.32372676	-3.00906304	0.00000056	0	-0.00000056	-35.67898870	521.91596104	-44.55888423	0.83552801	0	-0.41582287	0	-0.00000245	0	0	-2.06435661	0
32.04000000	2.49772719	0.42200058	-3.06564527	0.00000020	0	-0.00000017	-32.30221092	514.37684488	-44.24253392	0.83016263	0	-0.41553125	0	-0.00000069	0	0	-1.82858242	0.00000000
32.05000000	2.44091467	0.50496068	-3.10426326	0.00000002	0	0.00000001	-29.26733552	506.75707741	-44.40142346	0.82501766	0	-0.41528906	0	0.00000009	0	0	-1.58177576	0
32.06000000	2.40262621	0.55554542	-3.14417076	-0.00000004	0	0.00000005	-26.85141012	499.75390610	-44.72969461	0.82006402	0	-0.41516548	0	0.00000027	0	0	-1.27849949	0
32.07000000	2.36507960	0.60026361	-3.17927893	-0.00000005	0	0.00000005	-25.17650792	494.28955847	-44.80474149	0.81524743	0	-0.41514699	0	0.00000024	0	0	-0.96919301	0
32.08000000	2.31702503	0.61797935	-3.18447600	-0.00000005	0	0.00000004	-24.08220409	491.16757333	-44.41503602	0.81030540	0	-0.41523371	0	0.00000022	0	0	-0.68663293	0
32.09000000	2.25189585	0.58083974	-3.17695341	-0.00000007	0	0.00000004	-23.37805046	490.73176790	-43.44321845	0.80526723	0	-0.41538738	0	0.00000022	0	0	-0.38223364	-0.00000000
32.10000000	2.20089025	0.53398787	-3.18660276	-0.00000007	0	0.00000004	-22.90599237	492.38953821	-41.86673994	0.80037810	0	-0.41550940	0	0.00000011	0	0	-0.12631595	0
32.11000000	2.17776928	0.51838300	-3.23745252	0.00000002	0	-0.00000001	-22.44509881	494.81887984	-40.06129070	0.79580786	0	-0.41558471	0	-0.00000044	0	0	0.02838170	0
32.12000000	2.16553695	0.53178734	-3.29847635	0.00000032	0	-0.00000019	-21.67939225	496.86282117	-38.39548712	0.79130436	0	-0.41561606	0	-0.00000178	0	0	0.14560511	0
32.13000000	2.16100530	0.48167137	-3.32468509	0.00000091	0	-0.00000056	-20.50655477	498.05977741	-37.09488601	0.78671418	0	-0.41555828	0	-0.00000377	0	0	0.25940577	0
